<?xml version="1.0" encoding="UTF-8"?><svg id="uuid-7ce2be13-e588-4b6f-a52e-facd2c580380" xmlns="http://www.w3.org/2000/svg" xmlns:xlink="http://www.w3.org/1999/xlink" viewBox="0 0 65.18 63.51"><defs><style>.uuid-25b5cf30-16ba-4077-b689-e12c15c7fd7d{fill:url(#uuid-a16f7e12-d1c1-4f3b-b8be-5f387b010963);}.uuid-25b5cf30-16ba-4077-b689-e12c15c7fd7d,.uuid-0f1c4ba9-e97e-4768-88d6-43c7f5006b80,.uuid-c8d7265d-7eb4-4b1d-995e-3431aca025f5,.uuid-4fa34649-fbaf-47b6-8712-00106eac1a0b{stroke-width:0px;}.uuid-0f1c4ba9-e97e-4768-88d6-43c7f5006b80{fill:url(#uuid-03ff37fc-ac3a-4888-81ee-9400e31b0e75);}.uuid-c8d7265d-7eb4-4b1d-995e-3431aca025f5{fill:url(#uuid-e1f9b233-4fc8-47a6-8384-5ab36636d186);}.uuid-4fa34649-fbaf-47b6-8712-00106eac1a0b{fill:url(#uuid-5a7ef80c-aeb5-4efc-8249-cf2f3100df91);}</style><linearGradient id="uuid-a16f7e12-d1c1-4f3b-b8be-5f387b010963" x1="-4.35" y1="62.7" x2="75.39" y2="-17.04" gradientUnits="userSpaceOnUse"><stop offset="0" stop-color="#38bdf8"/><stop offset=".5" stop-color="#6366f1"/><stop offset="1" stop-color="#34d399"/></linearGradient><linearGradient id="uuid-e1f9b233-4fc8-47a6-8384-5ab36636d186" x1="27.59" y1="5" x2="37.59" y2="5" gradientUnits="userSpaceOnUse"><stop offset="0" stop-color="#38bdf8"/><stop offset=".04" stop-color="#44a4f5"/><stop offset=".08" stop-color="#4f8df4"/><stop offset=".14" stop-color="#587bf2"/><stop offset=".2" stop-color="#5e6ff1"/><stop offset=".29" stop-color="#6168f1"/><stop offset=".5" stop-color="#6366f1"/><stop offset=".7" stop-color="#6268ef"/><stop offset=".78" stop-color="#5f6fe9"/><stop offset=".84" stop-color="#597bdf"/><stop offset=".89" stop-color="#528dd1"/><stop offset=".94" stop-color="#48a4be"/><stop offset=".98" stop-color="#3cc0a8"/><stop offset="1" stop-color="#34d399"/></linearGradient><linearGradient id="uuid-5a7ef80c-aeb5-4efc-8249-cf2f3100df91" x1="13.18" x2="23.18" xlink:href="#uuid-e1f9b233-4fc8-47a6-8384-5ab36636d186"/><linearGradient id="uuid-03ff37fc-ac3a-4888-81ee-9400e31b0e75" x1="42" x2="52" xlink:href="#uuid-e1f9b233-4fc8-47a6-8384-5ab36636d186"/></defs><path id="uuid-bd48a9f8-2b76-4f77-90d1-18c3ea1382b5" class="uuid-25b5cf30-16ba-4077-b689-e12c15c7fd7d" d="M64.09,19.51c0,2.49-2.01,4.5-4.5,4.5s-4.5-2.01-4.5-4.5c0-1.7.95-3.15,2.33-3.92-1.17-.18-2.45-.22-3.83-.08-1.04,0-2.04.13-3.02.36-9.56-6.48-26.44-6.49-35.97,0-.97-.23-1.98-.35-3.01-.35-1.38-.14-2.66-.1-3.83.08,1.38.77,2.33,2.23,2.33,3.92,0,2.49-2.01,4.5-4.5,4.5s-4.5-2.01-4.5-4.5c-1.75,2.75-1.5,6.5,1.5,10l30,34,30-34c3-3.5,3.25-7.25,1.5-10ZM50.59,31.51l-18,22L14.59,31.51c-3-4-1-8,4-8,4.16,0,7.63,2.77,10.41,6.01l-2.41-4.01c-1.8-2.69-3.79-4.98-5.99-6.68,7.72-1.57,16.51-1.7,24.14-.11-2.26,1.72-4.31,4.04-6.14,6.8l-2.41,4.01c2.78-3.24,6.24-6.01,10.41-6.01,5,0,7,4,4,8Z"/><g id="uuid-7c3a3075-d14f-4131-8d81-2b52658c9cd6"><path class="uuid-c8d7265d-7eb4-4b1d-995e-3431aca025f5" d="M32.59,0c-2.76,0-5,2.24-5,5s2.24,5,5,5,5-2.24,5-5-2.24-5-5-5ZM32.59,7.2c-1.22,0-2.2-.98-2.2-2.2s.98-2.2,2.2-2.2,2.2.98,2.2,2.2-.98,2.2-2.2,2.2Z"/><path class="uuid-4fa34649-fbaf-47b6-8712-00106eac1a0b" d="M18.18,0c-2.76,0-5,2.24-5,5s2.24,5,5,5,5-2.24,5-5S20.94,0,18.18,0ZM18.18,7.2c-1.22,0-2.2-.98-2.2-2.2s.98-2.2,2.2-2.2,2.2.98,2.2,2.2-.98,2.2-2.2,2.2Z"/><path class="uuid-0f1c4ba9-e97e-4768-88d6-43c7f5006b80" d="M47,0c-2.76,0-5,2.24-5,5s2.24,5,5,5,5-2.24,5-5-2.24-5-5-5ZM47,7.2c-1.22,0-2.2-.98-2.2-2.2s.98-2.2,2.2-2.2,2.2.98,2.2,2.2-.98,2.2-2.2,2.2Z"/></g></svg>