<?xml version="1.0" encoding="UTF-8"?><svg id="uuid-fc7c685a-872d-48ec-a9b6-118ed0296004" xmlns="http://www.w3.org/2000/svg" viewBox="0 0 65.18 63.51"><defs><style>.uuid-5ee4b2d1-cf7b-42d7-a811-48dddf2e2a45{fill:#fff;stroke-width:0px;}</style></defs><path id="uuid-3f2c73bd-c69d-4669-bd38-8155c6789a9f" class="uuid-5ee4b2d1-cf7b-42d7-a811-48dddf2e2a45" d="M64.09,19.51c0,2.49-2.01,4.5-4.5,4.5s-4.5-2.01-4.5-4.5c0-1.7.95-3.15,2.33-3.92-1.17-.18-2.45-.22-3.83-.08-1.04,0-2.04.13-3.02.36-9.56-6.48-26.44-6.49-35.97,0-.97-.23-1.98-.35-3.01-.35-1.38-.14-2.66-.1-3.83.08,1.38.77,2.33,2.23,2.33,3.92,0,2.49-2.01,4.5-4.5,4.5s-4.5-2.01-4.5-4.5c-1.75,2.75-1.5,6.5,1.5,10l30,34,30-34c3-3.5,3.25-7.25,1.5-10ZM50.59,31.51l-18,22L14.59,31.51c-3-4-1-8,4-8,4.16,0,7.63,2.77,10.41,6.01l-2.41-4.01c-1.8-2.69-3.79-4.98-5.99-6.68,7.72-1.57,16.51-1.7,24.14-.11-2.26,1.72-4.31,4.04-6.14,6.8l-2.41,4.01c2.78-3.24,6.24-6.01,10.41-6.01,5,0,7,4,4,8Z"/><g id="uuid-e32b13fd-88e2-4a86-8d30-2d9ac5f0837c"><path class="uuid-5ee4b2d1-cf7b-42d7-a811-48dddf2e2a45" d="M32.59,0c-2.76,0-5,2.24-5,5s2.24,5,5,5,5-2.24,5-5-2.24-5-5-5ZM32.59,7.2c-1.22,0-2.2-.98-2.2-2.2s.98-2.2,2.2-2.2,2.2.98,2.2,2.2-.98,2.2-2.2,2.2Z"/><path class="uuid-5ee4b2d1-cf7b-42d7-a811-48dddf2e2a45" d="M18.18,0c-2.76,0-5,2.24-5,5s2.24,5,5,5,5-2.24,5-5S20.94,0,18.18,0ZM18.18,7.2c-1.22,0-2.2-.98-2.2-2.2s.98-2.2,2.2-2.2,2.2.98,2.2,2.2-.98,2.2-2.2,2.2Z"/><path class="uuid-5ee4b2d1-cf7b-42d7-a811-48dddf2e2a45" d="M47,0c-2.76,0-5,2.24-5,5s2.24,5,5,5,5-2.24,5-5-2.24-5-5-5ZM47,7.2c-1.22,0-2.2-.98-2.2-2.2s.98-2.2,2.2-2.2,2.2.98,2.2,2.2-.98,2.2-2.2,2.2Z"/></g></svg>